<svg width="69" height="98" viewBox="0 0 69 98" fill="none" xmlns="http://www.w3.org/2000/svg">
<path d="M39.4286 33.4091H63.0857L39.4286 6.68182V33.4091ZM8.625 0H43.125L69 29.4V88.2C69 93.6124 65.1385 98 60.375 98H8.625C3.83813 98 0 93.59 0 88.2V9.8C0 4.38761 3.86154 0 8.625 0ZM30.56 51.2273C32.4343 55.889 34.8114 59.722 37.5543 62.3636L39.4286 64.0211C35.4514 64.8499 29.9657 66.3002 24.16 68.8383L23.6571 69.0455L25.9429 63.6586C28 59.1522 29.5086 55.0603 30.56 51.2273ZM57.9037 70.1321C58.6764 69.2592 59.0628 68.1438 59.1057 66.9313C59.2345 65.9614 59.0199 65.04 58.5906 64.264C57.3456 61.9846 54.1259 60.9177 48.8026 60.9177L43.2647 61.2572L39.5298 58.4444C36.8253 55.9225 34.3783 51.5093 32.6611 46.0291L32.8328 45.3501C34.2495 38.9 35.5803 31.092 32.747 27.8912C32.0601 27.1152 31.1156 26.7273 30.1282 26.7273H29.0979C27.5095 26.7273 26.0929 28.6187 25.7065 30.4615C24.1181 36.9117 25.0626 40.4519 26.6509 46.3201V46.3686C25.5777 50.6363 24.204 55.583 22.0146 60.5782L17.8933 69.3077L14.0726 71.6841C8.92102 75.3213 6.47403 79.3951 6.0018 81.9654C5.83009 82.8869 5.91595 83.7113 6.21645 84.5843L6.34524 84.8268L8.40586 86.3302L10.2948 86.8636C13.7721 86.8636 17.7216 82.2564 23.0449 71.975L23.8176 71.6356C28.2393 70.0352 33.7343 68.9197 41.1182 67.9983C45.54 70.4716 50.7345 71.5871 53.9971 71.5871C55.886 71.5871 57.1739 71.0536 57.9037 70.1321ZM56.7718 66.15L57.1714 66.64C57.127 67.0855 56.9938 67.13 56.7718 67.2191H56.5942L55.7506 67.3082C53.7081 67.3082 50.5556 66.4618 47.3143 65.0364C47.7139 64.5909 47.8915 64.5909 48.3355 64.5909C54.5517 64.5909 56.3278 65.7045 56.7718 66.15ZM17.7429 73.5C14.7099 78.8009 11.9569 81.7409 9.85714 82.4091C10.0904 80.7164 12.1902 77.7764 15.5031 74.8809L17.7429 73.5ZM30.3068 40.0909C29.3999 35.4721 29.3605 31.7258 30.0308 29.5704L30.3068 28.9545L30.8982 29.2111C31.5685 30.4428 31.6474 32.085 31.2531 34.8563L31.1348 35.6774L30.5039 39.8856L30.3068 40.0909Z" fill="white"/>
</svg>
