<svg width="165" height="165" viewBox="0 0 165 165" fill="none" xmlns="http://www.w3.org/2000/svg">
<path d="M82.5 157.188C123.749 157.188 157.188 123.749 157.188 82.5C157.188 41.2512 123.749 7.8125 82.5 7.8125C41.2512 7.8125 7.8125 41.2512 7.8125 82.5C7.8125 123.749 41.2512 157.188 82.5 157.188Z" fill="#F44336" stroke="white" stroke-width="5"/>
<path d="M87.4286 67.4091H111.086L87.4286 40.6818V67.4091ZM56.625 34H91.125L117 63.4V122.2C117 127.612 113.138 132 108.375 132H56.625C51.8381 132 48 127.59 48 122.2V43.8C48 38.3876 51.8615 34 56.625 34ZM78.56 85.2273C80.4343 89.889 82.8114 93.722 85.5543 96.3636L87.4286 98.0211C83.4514 98.8499 77.9657 100.3 72.16 102.838L71.6571 103.045L73.9429 97.6586C76 93.1522 77.5086 89.0603 78.56 85.2273ZM105.904 104.132C106.676 103.259 107.063 102.144 107.106 100.931C107.235 99.9614 107.02 99.04 106.591 98.264C105.346 95.9846 102.126 94.9177 96.8026 94.9177L91.2647 95.2572L87.5298 92.4444C84.8253 89.9225 82.3783 85.5093 80.6611 80.0291L80.8328 79.3501C82.2495 72.9 83.5803 65.092 80.747 61.8912C80.0601 61.1152 79.1156 60.7273 78.1282 60.7273H77.0979C75.5095 60.7273 74.0929 62.6187 73.7065 64.4615C72.1181 70.9117 73.0626 74.4519 74.6509 80.3201V80.3686C73.5777 84.6363 72.204 89.583 70.0146 94.5782L65.8933 103.308L62.0726 105.684C56.921 109.321 54.474 113.395 54.0018 115.965C53.8301 116.887 53.9159 117.711 54.2165 118.584L54.3452 118.827L56.4059 120.33L58.2948 120.864C61.7721 120.864 65.7216 116.256 71.0449 105.975L71.8176 105.636C76.2393 104.035 81.7343 102.92 89.1182 101.998C93.54 104.472 98.7345 105.587 101.997 105.587C103.886 105.587 105.174 105.054 105.904 104.132ZM104.772 100.15L105.171 100.64C105.127 101.085 104.994 101.13 104.772 101.219H104.594L103.751 101.308C101.708 101.308 98.5556 100.462 95.3143 99.0364C95.7139 98.5909 95.8915 98.5909 96.3355 98.5909C102.552 98.5909 104.328 99.7045 104.772 100.15ZM65.7429 107.5C62.7099 112.801 59.9569 115.741 57.8571 116.409C58.0904 114.716 60.1902 111.776 63.5031 108.881L65.7429 107.5ZM78.3068 74.0909C77.3999 69.4721 77.3605 65.7258 78.0308 63.5704L78.3068 62.9545L78.8982 63.2111C79.5685 64.4428 79.6474 66.085 79.2531 68.8563L79.1348 69.6774L78.5039 73.8856L78.3068 74.0909Z" fill="white"/>
</svg>
